HIERARCHY
ROOT hips
{
  OFFSET 0 11.86390953 0.3628582958
  CHANNELS 6 Xposition Yposition Zposition Yrotation Xrotation Zrotation
  JOINT spine
  {
    OFFSET 0 0.05383551117999996 0
    CHANNELS 3 Yrotation Xrotation Zrotation
    JOINT chest
    {
      OFFSET 0 0.6394558760401424 0
      CHANNELS 3 Yrotation Xrotation Zrotation
      JOINT neck
      {
        OFFSET 0 2.720089088562982 0
        CHANNELS 3 Yrotation Xrotation Zrotation
        JOINT head
        {
          OFFSET 0 0.37880844870545777 0
          CHANNELS 3 Yrotation Xrotation Zrotation
          JOINT rightEye
          {
            OFFSET -0.42867780714 0.7547055649100001 0.7381831347
            CHANNELS 3 Yrotation Xrotation Zrotation
            End Site
            {
              OFFSET -0.42867780714 0.7547055649100001 0.7381831347
            }
          }
          JOINT leftEye
          {
            OFFSET 0.428676479 0.7547055559999993 0.7381844503
            CHANNELS 3 Yrotation Xrotation Zrotation
            End Site
            {
              OFFSET 0.428676479 0.7547055559999993 0.7381844503
            }
          }
          JOINT jaw
          {
            OFFSET -0.18933892286100001 1.5626303011000007 1.137441874206
            CHANNELS 3 Yrotation Xrotation Zrotation
            End Site
            {
              OFFSET -0.18933892286100001 1.5626303011000007 1.137441874206
            }
          }
        }
      }
      JOINT rightShoulder
      {
        OFFSET -0.6795351508 2.0665205 0
        CHANNELS 3 Yrotation Xrotation Zrotation
        JOINT rightUpperArm
        {
          OFFSET -0.7287400483531672 0 0
          CHANNELS 3 Yrotation Xrotation Zrotation
          JOINT rightLowerArm
          {
            OFFSET -1.9872982039174532 0 0
            CHANNELS 3 Yrotation Xrotation Zrotation
            JOINT rightHand
            {
              OFFSET -2.6451847532219275 0 0
              CHANNELS 3 Yrotation Xrotation Zrotation
              JOINT rightLittleProximal
              {
                OFFSET -0.8008804099999995 -0.09592044000000044 -0.26183688629999996
                CHANNELS 3 Yrotation Xrotation Zrotation
                JOINT rightLittleIntermediate
                {
                  OFFSET -0.2473955153999997 -0.02541697026000067 0.002370178700999967
                  CHANNELS 3 Yrotation Xrotation Zrotation
                  JOINT rightLittleDistal
                  {
                    OFFSET -0.163687229200001 -0.015790700860001117 -0.0004274845300000635
                    CHANNELS 3 Yrotation Xrotation Zrotation
                    End Site
                    {
                      OFFSET -0.163687229200001 -0.015790700860001117 -0.0004274845300000635
                    }
                  }
                }
              }
              JOINT rightRingProximal
              {
                OFFSET -0.8393382799999985 -0.06223833561000025 -0.09213143500000005
                CHANNELS 3 Yrotation Xrotation Zrotation
                JOINT rightRingIntermediate
                {
                  OFFSET -0.3284497260000011 -0.03264224524000103 0.009408593183000052
                  CHANNELS 3 Yrotation Xrotation Zrotation
                  JOINT rightRingDistal
                  {
                    OFFSET -0.19447660429999902 -0.021730899850000318 0.003074347969000052
                    CHANNELS 3 Yrotation Xrotation Zrotation
                    End Site
                    {
                      OFFSET -0.19447660429999902 -0.021730899850000318 0.003074347969000052
                    }
                  }
                }
              }
              JOINT rightMiddleProximal
              {
                OFFSET -0.8473005199999989 -0.06735503500000095 0.10541820299999995
                CHANNELS 3 Yrotation Xrotation Zrotation
                JOINT rightMiddleIntermediate
                {
                  OFFSET -0.3450455799999995 -0.02481901642000084 0.019012570390000032
                  CHANNELS 3 Yrotation Xrotation Zrotation
                  JOINT rightMiddleDistal
                  {
                    OFFSET -0.23542332000000088 -0.025003910029999243 0.0075583457949999905
                    CHANNELS 3 Yrotation Xrotation Zrotation
                    End Site
                    {
                      OFFSET -0.23542332000000088 -0.025003910029999243 0.0075583457949999905
                    }
                  }
                }
              }
              JOINT rightIndexProximal
              {
                OFFSET -0.8008568281999987 -0.09897839600000169 0.29462796
                CHANNELS 3 Yrotation Xrotation Zrotation
                JOINT rightIndexIntermediate
                {
                  OFFSET -0.30524754480000016 -0.024634122809999992 0.02743375304999998
                  CHANNELS 3 Yrotation Xrotation Zrotation
                  JOINT rightIndexDistal
                  {
                    OFFSET -0.23067378950000017 -0.016876459159999913 0.008484125099999983
                    CHANNELS 3 Yrotation Xrotation Zrotation
                    End Site
                    {
                      OFFSET -0.23067378950000017 -0.016876459159999913 0.008484125099999983
                    }
                  }
                }
              }
              JOINT rightThumbProximal
              {
                OFFSET -0.25574064999999935 -0.12833189930000155 0.22385698609999993
                CHANNELS 3 Yrotation Xrotation Zrotation
                JOINT rightThumbIntermediate
                {
                  OFFSET -0.22791743260000086 -0.07103586192999978 0.27385039
                  CHANNELS 3 Yrotation Xrotation Zrotation
                  JOINT rightThumbDistal
                  {
                    OFFSET -0.13610267659999975 -0.03369390969999997 0.14246511509999996
                    CHANNELS 3 Yrotation Xrotation Zrotation
                    End Site
                    {
                      OFFSET -0.13610267659999975 -0.03369390969999997 0.14246511509999996
                    }
                  }
                }
              }
            }
          }
        }
      }
      JOINT leftShoulder
      {
        OFFSET 0.6795338396 2.0665205 0
        CHANNELS 3 Yrotation Xrotation Zrotation
        JOINT leftUpperArm
        {
          OFFSET 0.7287383950230443 0 0
          CHANNELS 3 Yrotation Xrotation Zrotation
          JOINT leftLowerArm
          {
            OFFSET 1.9872997282019604 0 0
            CHANNELS 3 Yrotation Xrotation Zrotation
            JOINT leftHand
            {
              OFFSET 2.6451820781302327 0 0
              CHANNELS 3 Yrotation Xrotation Zrotation
              JOINT leftLittleProximal
              {
                OFFSET 0.8008804099999995 -0.09592306899999814 -0.2618342639000001
                CHANNELS 3 Yrotation Xrotation Zrotation
                JOINT leftLittleIntermediate
                {
                  OFFSET 0.2473981400000007 -0.02542352681000093 0.0023609995859999455
                  CHANNELS 3 Yrotation Xrotation Zrotation
                  JOINT leftLittleDistal
                  {
                    OFFSET 0.1636846068000002 -0.015794634789999318 -0.00043272972159996703
                    CHANNELS 3 Yrotation Xrotation Zrotation
                    End Site
                    {
                      OFFSET 0.1636846068000002 -0.015794634789999318 -0.00043272972159996703
                    }
                  }
                }
              }
              JOINT leftRingProximal
              {
                OFFSET 0.8393409199999996 -0.062242267999998324 -0.0921281570000001
                CHANNELS 3 Yrotation Xrotation Zrotation
                JOINT leftRingIntermediate
                {
                  OFFSET 0.3284471036000003 -0.03264224524000103 0.009405970574000042
                  CHANNELS 3 Yrotation Xrotation Zrotation
                  JOINT leftRingDistal
                  {
                    OFFSET 0.1944779099999996 -0.021732211159998904 0.003073036670000001
                    CHANNELS 3 Yrotation Xrotation Zrotation
                    End Site
                    {
                      OFFSET 0.1944779099999996 -0.021732211159998904 0.003073036670000001
                    }
                  }
                }
              }
              JOINT leftMiddleProximal
              {
                OFFSET 0.8473005200000001 -0.06736028199999788 0.1054214809999999
                CHANNELS 3 Yrotation Xrotation Zrotation
                JOINT leftMiddleIntermediate
                {
                  OFFSET 0.3450455799999995 -0.024824261000000014 0.019013225990000007
                  CHANNELS 3 Yrotation Xrotation Zrotation
                  JOINT leftMiddleDistal
                  {
                    OFFSET 0.2354259489999998 -0.025005222000000327 0.0075590014499999705
                    CHANNELS 3 Yrotation Xrotation Zrotation
                    End Site
                    {
                      OFFSET 0.2354259489999998 -0.025005222000000327 0.0075590014499999705
                    }
                  }
                }
              }
              JOINT leftIndexProximal
              {
                OFFSET 0.8008594516999996 -0.09898495199999946 0.29463124239999994
                CHANNELS 3 Yrotation Xrotation Zrotation
                JOINT leftIndexIntermediate
                {
                  OFFSET 0.30524754480000016 -0.024632811499998963 0.02743047472
                  CHANNELS 3 Yrotation Xrotation Zrotation
                  JOINT leftIndexDistal
                  {
                    OFFSET 0.23067378950000017 -0.016876459159999913 0.008481502700000004
                    CHANNELS 3 Yrotation Xrotation Zrotation
                    End Site
                    {
                      OFFSET 0.23067378950000017 -0.016876459159999913 0.008481502700000004
                    }
                  }
                }
              }
              JOINT leftThumbProximal
              {
                OFFSET 0.25574326469999953 -0.12833321050000013 0.22385764169999997
                CHANNELS 3 Yrotation Xrotation Zrotation
                JOINT leftThumbIntermediate
                {
                  OFFSET 0.22804987480000094 -0.07138466829999968 0.273648441
                  CHANNELS 3 Yrotation Xrotation Zrotation
                  JOINT leftThumbDistal
                  {
                    OFFSET 0.13614857189999907 -0.033867001519998885 0.14238119169999996
                    CHANNELS 3 Yrotation Xrotation Zrotation
                    End Site
                    {
                      OFFSET 0.13614857189999907 -0.033867001519998885 0.14238119169999996
                    }
                  }
                }
              }
            }
          }
        }
      }
    }
  }
  JOINT rightUpperLeg
  {
    OFFSET -0.9749898906000001 -1.8495733739999998 0
    CHANNELS 3 Yrotation Xrotation Zrotation
    JOINT rightLowerLeg
    {
      OFFSET 0 -4.1566544686813165 0
      CHANNELS 3 Yrotation Xrotation Zrotation
      JOINT rightFoot
      {
        OFFSET 0.14539718599999998 -4.225553926 -0.3666210900000001
        CHANNELS 3 Yrotation Xrotation Zrotation
        JOINT rightToes
        {
          OFFSET 0.1706738473 -0.9584117400000015 1.0093348617
          CHANNELS 3 Yrotation Xrotation Zrotation
          End Site
          {
            OFFSET 0.1706738473 -0.9584117400000015 1.0093348617
          }
        }
      }
    }
  }
  JOINT leftUpperLeg
  {
    OFFSET 0.9749898906000001 -1.8495733739999998 0
    CHANNELS 3 Yrotation Xrotation Zrotation
    JOINT leftLowerLeg
    {
      OFFSET 0 -4.156653488267941 0
      CHANNELS 3 Yrotation Xrotation Zrotation
      JOINT leftFoot
      {
        OFFSET -0.14537357999999995 -4.225555399999999 -0.36661124279999996
        CHANNELS 3 Yrotation Xrotation Zrotation
        JOINT leftToes
        {
          OFFSET -0.17066467000000002 -0.9584157000000019 1.0093348617
          CHANNELS 3 Yrotation Xrotation Zrotation
          End Site
          {
            OFFSET -0.17066467000000002 -0.9584157000000019 1.0093348617
          }
        }
      }
    }
  }
}
MOTION
Frames: 4
Frame Time: 0.03333333333333333
0.7829776406288147 -0.2401760094921883 0.264682799577713 -12.564386278675022 -5.336206281398339 -6.757486390701241 -0.4170543581017009 0.14851846767549445 2.3162409896369383 1.6604262631687836 1.2060519144539752 11.06922939319266 -2.6160112444316104 6.975955262500506 -2.2337925473785836 -12.999020439807095 25.39329962205974 -2.0130270502775423 0 0 0 0 0 0 0 0 0 4.54821151124158 0.519118714821381 15.237931632113758 6.346120219137027 57.41349858247852 49.98226091478589 90.22911502844595 0.7431384271685003 -0.7401078539719289 38.369863016993584 -0.3451598543712671 -35.728306707322666 -21.6224154135871 -3.014890197028811 -7.1567855460025225 -1.6944983662919462 0.1344811054278709 22.542163164992765 1.5284414013032752 -0.43340773058138315 6.345235870298772 -10.708985799307907 1.096378757305366 11.963033246372651 -2.704881979738767 0.9023505406601944 29.050676078878258 0.24943984606725558 -0.1871555202076323 17.815440346357327 -6.96292309124296 0.4465759765535465 19.599238791654017 -2.9741033138038193 0.4952934409635822 26.61862089091973 -1.5498482872585635 0.1952884265001912 16.233229675292947 3.460780361518415 7.623981146681012 36.18855104684 -1.6097984260999423 0.08835246062233229 9.688005168554755 -0.049448918422381256 -0.21471889169156688 13.845844575657452 -0.4654125767766846 -10.31383015681294 -22.483027604569997 -25.967340799027756 -1.0825817355222898 4.298926049384288 -11.778003788805702 2.589756078930243 0.14915071714203582 -11.892051746159936 0.46521431194144197 -11.195014200078429 -25.254936896083375 44.55520808603669 -83.11247556753709 -83.57581818345463 0.6572418960938973 0.735568649331996 -38.58392886297309 8.259986020815226 35.148115724772616 17.772757227133212 1.3859768105997277 -6.892430031078462 0.9697285836351119 0.07171005475567294 -13.440958384049111 1.2434967154621754 0.052631684237907914 -4.524501070253213 8.44589028099233 0.6716373276809519 -10.620452313982074 1.8451289786193212 0.41751621695960206 -17.976101362880936 0.7250770449667714 0.18153265792991538 -8.653866783320813 4.71827090067982 -0.0003725763919742203 -11.259745203895235 2.9768133719667174 0.4698282583293079 -25.445145980149064 1.3411250460247086 0.15589421755545363 -12.363965041536845 -6.66050579863964 0.9947060830483391 -17.500232687111257 2.2677741913628364 0.23796100632924047 -16.896952261197328 0.6785064256247975 0.022953920204420393 -10.179021437601996 -4.467587471985955 -33.089130021280475 25.73141489141806 31.0598067966787 0.16631008378460319 -0.5561522377963153 13.928478371126454 2.9862413917321633 0.9652376458160149 -3.6116552350268787 6.103992143991324 10.013776922611775 10.229193033204675 9.31140379471407 4.60123899767698 -17.903317639812983 -10.492517748354683 -7.1049060332261105 0.000009571666904937428 -2.2874791897536086 -0.000002780240960486321 14.61017332198842 -12.503714376144938 12.109305315848776 11.160746866550953 25.246673936490076 5.881669148721452 15.173345578301106 -6.899473869135069 -8.981766992898025 0.0000033468132251941784 -2.077328846703699 -6.989817469575783e-7
0.7457762360572815 -0.2596786492626961 0.2554061710834503 -13.039514501330185 -5.434776710968647 -7.150796307375909 -0.5271629310044815 0.18278835186640682 2.5909153849370337 1.6213499883562659 1.244140527106436 11.16407314346279 -2.5379084252115054 6.903340881194831 -2.2709792348108353 -12.60961896500798 25.25765432843299 -2.25169500034187 0 0 0 0 0 0 0 0 0 4.548212787921634 0.5191169538409572 15.237929984531561 6.323325306657163 57.41503314007815 49.954810207725465 90.2333837831303 0.7432044934618428 -0.7401085476635026 38.390488844182286 -0.37793282215251384 -35.73235925295178 -21.62240938464635 -3.014904090080026 -7.1567859701505245 -1.6944980462659502 0.13449136408009904 22.54218470853504 1.5284356402167545 -0.4334115193103344 6.345239264569579 -10.708976774019936 1.096387723570178 11.963046485144101 -2.704903250895514 0.9023556639374269 29.050648544111628 0.24945482859273702 -0.18715187830999355 17.81546031849045 -6.962926057502186 0.4465793117081576 19.59924798056563 -2.97413439976491 0.4952642514864951 26.618643800916857 -1.549851701123639 0.19527923503989306 16.233237187900723 3.460794111634191 7.62399406750472 36.188568273386934 -1.6097892516449082 0.0883597310471835 9.687982712284505 -0.04945767299549154 -0.2147175976817977 13.845845404628902 -0.465426651951394 -10.313834495791061 -22.48302439722222 -25.967337767997968 -1.0825663648530632 4.298930307002095 -11.778022056314006 2.589758001884931 0.14914253125847868 -11.892036003804883 0.4652296803736829 -11.194939518053571 -25.254960735974542 44.555193708201216 -83.11246365245357 -83.6160867580865 0.6577583030692642 0.7356420002619265 -38.4540418020845 7.907649613530111 34.50370555922002 17.772205161801363 1.3860890079396557 -6.889058488177968 0.9697298641131604 0.07172277465894504 -13.440976579470211 1.2434928743839786 0.05261278781790828 -4.5245180925204425 8.455630528607465 0.6775213031320896 -10.732142296646542 1.845147325722133 0.41750645166425754 -17.97621585400402 0.7250912912454561 0.18152985647107775 -8.653881646161148 4.729453433354812 -0.001673069407446516 -11.37156000705916 2.976799516399786 0.46980755362232013 -25.445204052305268 1.3411205649242965 0.15590893186510923 -12.363962539611032 -6.652661317760426 0.9965176373313526 -17.573265820033498 2.267770565635473 0.2379835781647033 -16.89694473320745 0.6785160299057493 0.0229297143855874 -10.17901387458119 -4.467614775380542 -33.08910964050186 25.73141869598744 31.059822022538555 0.16632686584354242 -0.5561303607851006 13.928474228771966 2.986251864680874 0.9652382869259787 -3.6213784759974152 5.804369970749419 10.426384029339356 10.272087903531958 10.110842274004767 5.085269028201092 -17.386450496585336 -10.902706321962322 -7.498833302441845 0.0000018457135769471572 -2.412648881180153 0.0000017687190563775099 14.876690792623988 -13.06897101608665 12.830473746618441 11.255695061406563 26.14960020734145 6.134136187662235 15.119370156199789 -7.167348601142032 -9.416077031927461 -0.000004611093383345822 -2.0557636531599583 0.0000036809438839571238
0.6604909896850586 -0.2921474450390633 0.23273146152496338 -14.357818834297957 -5.784215696856073 -7.819482677902016 -0.7550646638955221 0.3226852153236476 3.043324728534349 1.5391606931088018 1.3427917939625902 11.358736373409142 -2.3408311997352778 6.764728118970655 -2.3858355798983495 -11.667209474339089 25.051480332261303 -2.8109018035656916 0 0 0 0 0 0 0 0 0 4.5482018781005875 0.5191249049343895 15.237910065889439 6.28339068396767 57.41768389103919 49.90662431718155 90.24017927410867 0.743292706373638 -0.7401111623471247 38.42666319579967 -0.43530025429122043 -35.739506031914 -21.622430650652127 -3.014900242773518 -7.1567855460025225 -1.6945189546307893 0.13448838920435494 22.542169205491195 1.5284505763669298 -0.43340396853362356 6.345251097677826 -10.708999224230041 1.0963788640466137 11.963034917140504 -2.7048885378840346 0.9023437096238951 29.05065617425684 0.24943517701210238 -0.18714630207111962 17.815449519586927 -6.962934108777037 0.446582967037613 19.59923718298987 -2.9741294969956127 0.49526088962716797 26.618630054204456 -1.5498603424695623 0.19528730591577143 16.23321983841362 3.4607466136860157 7.623981146681012 36.18856142374018 -1.609780290549214 0.08836217897922087 9.68798944507471 -0.04943298009670142 -0.2147127017891669 13.845829665869237 -0.4654273830505962 -10.313827553426096 -22.483049227225084 -25.967336232564104 -1.0825758647805621 4.298945038944714 -11.778008808721543 2.589760779486152 0.1491431054721705 -11.892046029530846 0.4652150056553966 -11.195007499632903 -25.254947977419118 44.55518412297954 -83.11246955994629 -83.71993680079258 0.6590824333414091 0.7357847440264658 -38.082508987824916 6.835531479664101 31.6451752760391 17.77070715733707 1.386480044000389 -6.880804845491768 0.9697365866228986 0.07171628464012773 -13.440958384049111 1.2434888199125362 0.05259580238426364 -4.524516390293756 8.485396865903523 0.6956946465446713 -11.074697299728234 1.8451792231087087 0.4175189651164908 -17.976571180782905 0.7250851552078315 0.18152644135935248 -8.653887554566827 4.763761515181164 -0.0056138277035875156 -11.714498257892867 2.976809321877958 0.4698133167881765 -25.44536901700583 1.3411333680682873 0.15590714426991933 -12.363970776634904 -6.628754039082102 1.0021988710148162 -17.79733040904635 2.2677648071272714 0.23798211072859055 -16.896952261197328 0.67851773733347 0.02294842070107812 -10.17900967290281 -4.467594583584938 -33.08912594512437 25.731424005015022 31.059799183748527 0.16632275704055757 -0.556136710454226 13.928480030720305 2.9862422466667478 0.9652378595193362 -3.6594656763810574 5.701966080161402 11.081550603947619 10.34786016232734 11.055893995567173 6.03043952730153 -15.879915712073455 -11.401310292679305 -8.495817705980652 -0.000008567591926139734 -2.762067148253883 -6.076474209886579e-7 15.388590700421677 -13.74053180712416 14.228967647989977 11.409576715759911 27.49007591890323 6.617005900321386 15.45274801722032 -7.4197779062096405 -10.370277351047092 -0.000001548242983372794 -1.7860794619315918 -5.401784912307907e-7
0.6385359168052673 -0.2926033013623055 0.22845342755317688 -14.771934512973614 -5.901149402427602 -7.823499421012383 -0.7582233695765828 0.3480262383896459 3.0411547937901537 1.5389576737337505 1.3477681046328713 11.372132608190844 -2.2830395257181486 6.7830542323194924 -2.428957061299724 -11.422023930257089 25.121430515275613 -2.894358504636674 0 0 0 0 0 0 0 0 0 4.548208687060594 0.5191201556235462 15.237950653136505 6.280541910465972 57.417880485476154 49.90318111810516 90.24038256956919 0.7432851284948786 -0.7401136703089632 38.4292093605321 -0.4393756747509862 -35.74001709737728 -21.62241223440412 -3.0148934031175374 -7.156788515038511 -1.6945125541109884 0.1344788109048764 22.542164742083784 1.5284301991905673 -0.4334212312634294 6.345247279123113 -10.708983282134874 1.0963853752627244 11.963048991295778 -2.7049134860337243 0.9023429624793007 29.050662311494904 0.24945278602009147 -0.18714019222087222 17.815447893913106 -6.962931566269219 0.4465964944247377 19.599252806557637 -2.974106084934263 0.4952688940541402 26.618622417538848 -1.5498483939418473 0.19527149767128602 16.23323882738049 3.460770903527412 7.623990621951693 36.188568273386934 -1.6097977860216868 0.08835521537963814 9.687984395482081 -0.04943752246949482 -0.2147081660848237 13.845844575657452 -0.46542835928843435 -10.313831892404181 -22.483022793548276 -25.96734386989541 -1.0825867523379566 4.298937375232465 -11.77801452644044 2.589780009033233 0.14913975366666676 -11.892043523099426 0.4652083886915247 -11.195013362522754 -25.254979873811507 44.555203293424476 -83.11251299694794 -83.74984846180055 0.6594721534494348 0.7358267193330594 -37.95659573749817 6.493266095252887 30.554555143208205 17.770264737539733 1.3866096420975578 -6.878722254922875 0.9697261293855164 0.07171262274872968 -13.440967481759449 1.2435127199545424 0.05262662495990886 -4.52450319803666 8.49547140921051 0.7019066853694854 -11.191257776485765 1.8451954368275434 0.41753203887257667 -17.976679174965877 0.7250645061071808 0.18152900269314637 -8.653897683261848 4.7754214976370415 -0.006899277734084377 -11.831182470191479 2.97682680120818 0.4698140105025855 -25.445424005240547 1.3411175775240127 0.15591205348656062 -12.363970776634904 -6.620660362223347 1.004169896145426 -17.873575630510192 2.2677701390793117 0.23797330611191717 -16.89695389504227 0.678522112616999 0.022941340382342443 -10.179007992231426 -4.467585185993192 -33.08910148819173 25.731424203926963 31.059802109230848 0.16631960873697235 -0.5561400186851934 13.928473398975054 2.9862336973209294 0.965229738793107 -3.641036178613717 5.907005765099371 11.099548750185583 10.34789986457913 10.906661556966261 6.119316272407013 -15.430950104870652 -11.332863629684425 -8.727246892257575 0.000003736169303505864 -2.835798851762315 7.018300336845068e-7 15.42022139931674 -13.56295177044522 14.38183682554668 11.408730912315539 27.422671681222457 6.676766313103629 15.816372363000164 -7.285428989628998 -10.591135589775766 0.0000027302687198278668 -1.6613514476545437 0.000003714528453261527
